<?xml version="1.0" encoding="UTF-8" standalone="no"?>
<!DOCTYPE svg PUBLIC "-//W3C//DTD SVG 20010904//EN"
              "http://www.w3.org/TR/2001/REC-SVG-20010904/DTD/svg10.dtd">

<svg xmlns="http://www.w3.org/2000/svg"
     width="0.666667in" height="1in"
     viewBox="0 0 200 300">
  <path id="Selectie"
        fill="#212529" stroke="black" stroke-width="0"
        d="M 48.00,96.00
           C 45.50,90.80 43.87,88.79 42.03,83.00
             35.36,62.02 40.15,37.97 57.00,23.18
             75.19,7.23 106.62,5.08 129.00,11.72
             135.37,13.61 147.52,17.55 151.26,23.09
             154.17,27.40 153.68,35.07 153.05,40.00
             152.70,42.67 152.38,46.17 148.89,46.30
             146.08,46.41 131.49,38.13 127.00,36.42
             110.61,30.22 89.30,28.37 76.04,42.02
             71.21,46.99 68.34,53.02 68.04,60.00
             67.46,73.27 74.75,82.05 85.00,89.51
             87.62,91.42 92.93,94.67 96.00,95.88
             98.16,96.09 100.76,96.00 103.00,95.88
             103.00,95.88 155.00,95.88 155.00,95.88
             155.00,95.88 180.00,95.88 180.00,95.88
             186.02,96.09 190.90,97.64 189.76,104.98
             188.75,111.47 183.08,110.99 178.00,111.00
             178.00,111.00 146.00,111.00 146.00,111.00
             140.08,111.00 133.71,110.38 128.00,112.00
             140.72,116.67 147.49,125.69 153.00,128.07
             156.76,129.69 172.92,128.99 178.00,129.00
             184.31,129.01 191.11,129.34 189.76,137.98
             189.44,140.06 188.61,141.70 186.77,142.83
             183.51,144.82 166.76,144.00 162.00,144.00
             164.17,150.62 166.18,160.04 165.96,167.00
             165.77,172.93 164.11,182.41 162.14,188.00
             152.04,216.65 122.39,228.67 94.00,229.00
             80.35,229.15 62.30,225.69 50.00,219.74
             45.60,217.62 39.71,214.96 36.88,210.91
             34.05,206.87 33.90,201.74 34.01,197.00
             34.12,192.56 34.70,185.53 41.00,186.75
             43.63,187.26 47.60,190.13 50.00,191.55
             53.45,193.59 61.29,197.52 65.00,198.94
             73.09,202.03 86.38,205.40 95.00,204.91
             111.79,203.96 128.45,197.03 134.45,180.00
             135.92,175.84 136.09,172.35 135.99,168.00
             135.81,160.18 130.74,147.48 123.00,144.60
             121.08,143.89 118.07,144.00 116.00,144.00
             116.00,144.00 34.00,144.00 34.00,144.00
             26.45,144.00 8.34,147.24 10.24,135.02
             11.25,128.53 16.92,129.01 22.00,129.00
             22.00,129.00 58.00,129.00 58.00,129.00
             66.53,129.00 90.23,129.92 97.00,128.00
             86.56,126.04 67.17,112.70 63.00,111.51
             60.91,110.91 58.19,111.00 56.00,111.00
             56.00,111.00 22.00,111.00 22.00,111.00
             15.69,110.99 8.89,110.66 10.24,102.02
             11.25,95.53 16.92,96.01 22.00,96.00
             22.00,96.00 48.00,96.00 48.00,96.00 Z" />
</svg>
